0
SECTION
2
HEADER
9
$INSUNITS
70
4
9
$ACADVER
1
AC1014
9
$HANDSEED
5
FFFF
0
ENDSEC
0
SECTION
2
TABLES
0
TABLE
2
VPORT
5
8
100
AcDbSymbolTable
0
ENDTAB
0
TABLE
2
LTYPE
5
5
100
AcDbSymbolTable
0
LTYPE
5
14
100
AcDbSymbolTableRecord
100
AcDbLinetypeTableRecord
2
BYBLOCK
70
0
0
LTYPE
5
15
100
AcDbSymbolTableRecord
100
AcDbLinetypeTableRecord
2
BYLAYER
70
0
0
LTYPE
5
16
100
AcDbSymbolTableRecord
100
AcDbLinetypeTableRecord
2
DASHED
70
0
3
Dashed __ __ __ __ __ __ __ __ __ __ __ __ __ _
72
65
73
2
40
0.75
49
0.5
74
0
49
-0.25
74
0
0
ENDTAB
0
TABLE
2
LAYER
5
2
100
AcDbSymbolTable
70
2
0
LAYER
5
50
100
AcDbSymbolTableRecord
100
AcDbLayerTableRecord
2
0
70
0
62
7
6
CONTINUOUS
0
ENDTAB
0
TABLE
2
STYLE
5
3
100
AcDbSymbolTable
70
1
0
STYLE
5
11
100
AcDbSymbolTableRecord
100
AcDbTextStyleTableRecord
2
STANDARD
70
0
0
ENDTAB
0
TABLE
2
VIEW
5
6
100
AcDbSymbolTable
70
0
0
ENDTAB
0
TABLE
2
UCS
5
7
100
AcDbSymbolTable
70
0
0
ENDTAB
0
TABLE
2
APPID
5
9
100
AcDbSymbolTable
70
2
0
APPID
5
12
100
AcDbSymbolTableRecord
100
AcDbRegAppTableRecord
2
ACAD
70
0
0
ENDTAB
0
TABLE
2
DIMSTYLE
5
A
100
AcDbSymbolTable
70
1
0
ENDTAB
0
TABLE
2
BLOCK_RECORD
5
1
100
AcDbSymbolTable
70
1
0
BLOCK_RECORD
5
1F
100
AcDbSymbolTableRecord
100
AcDbBlockTableRecord
2
*MODEL_SPACE
0
BLOCK_RECORD
5
1B
100
AcDbSymbolTableRecord
100
AcDbBlockTableRecord
2
*PAPER_SPACE
0
ENDTAB
0
ENDSEC
0
SECTION
2
BLOCKS
0
BLOCK
5
20
100
AcDbEntity
100
AcDbBlockBegin
2
*MODEL_SPACE
0
ENDBLK
5
21
100
AcDbEntity
100
AcDbBlockEnd
0
BLOCK
5
1C
100
AcDbEntity
100
AcDbBlockBegin
2
*PAPER_SPACE
0
ENDBLK
5
1D
100
AcDbEntity
100
AcDbBlockEnd
0
ENDSEC
0
SECTION
2
ENTITIES
0
CIRCLE
5
100
100
AcDbEntity
8
0
100
AcDbCircle
10
53.067309497777401
20
53.067309497777416
30
0
40
1.6000000000000014
210
0
220
-0
230
1
0
CIRCLE
5
101
100
AcDbEntity
8
0
100
AcDbCircle
10
53.067309497777401
20
-53.067309497777401
30
0
40
1.6000000000000014
210
0
220
-0
230
1
0
CIRCLE
5
102
100
AcDbEntity
8
0
100
AcDbCircle
10
-53.067309497777387
20
53.067309497777408
30
0
40
1.6000000000000014
210
0
220
-0
230
1
0
CIRCLE
5
103
100
AcDbEntity
8
0
100
AcDbCircle
10
-53.067309497777408
20
-53.067309497777387
30
0
40
1.6000000000000014
210
0
220
-0
230
1
0
CIRCLE
5
104
100
AcDbEntity
8
0
100
AcDbCircle
10
93.96925982068592
20
34.202013510756679
30
0
40
1.6000000000000014
210
0
220
-0
230
1
0
CIRCLE
5
105
100
AcDbEntity
8
0
100
AcDbCircle
10
0
20
0
30
0
40
59.848508810407353
210
0
220
-0
230
1
0
CIRCLE
5
106
100
AcDbEntity
8
0
100
AcDbCircle
10
-28.997879255285632
20
93.590442204372962
30
0
40
1.6000000000000014
210
0
220
-0
230
1
0
CIRCLE
5
107
100
AcDbEntity
8
0
100
AcDbCircle
10
28.997879255285632
20
93.590442204372962
30
0
40
1.6000000000000014
210
0
220
-0
230
1
0
CIRCLE
5
108
100
AcDbEntity
8
0
100
AcDbCircle
10
-93.96925982068592
20
-34.202013510756679
30
0
40
1.6000000000000014
210
0
220
-0
230
1
0
CIRCLE
5
109
100
AcDbEntity
8
0
100
AcDbCircle
10
93.96925982068592
20
-34.202013510756679
30
0
40
1.6000000000000014
210
0
220
-0
230
1
0
CIRCLE
5
110
100
AcDbEntity
8
0
100
AcDbCircle
10
28.997879255285632
20
-93.590442204372962
30
0
40
1.6000000000000014
210
0
220
-0
230
1
0
CIRCLE
5
111
100
AcDbEntity
8
0
100
AcDbCircle
10
-28.997879255285632
20
-93.590442204372962
30
0
40
1.6000000000000014
210
0
220
-0
230
1
0
CIRCLE
5
112
100
AcDbEntity
8
0
100
AcDbCircle
10
-93.96925982068592
20
34.202013510756679
30
0
40
1.6000000000000014
210
0
220
-0
230
1
0
LWPOLYLINE
5
113
100
AcDbEntity
8
0
100
AcDbPolyline
90
88
70
1
43
0.0
10
90.783734064108685
20
-27.987732542006192
42
0.1723662913964428
10
90.925417278348306
20
-31.332593575474856
42
-0.18449933247638256
10
90.958988029016894
20
-33.116534934140319
42
1.0222698761278823
10
97.024408991328045
20
-35.153887213053721
42
-0.18449933247639702
10
98.128104671092089
20
-33.751949406684119
42
0.18527152721274892
10
100.33991683887498
20
-30.933809726205574
42
0.15064684238892836
10
100.33991683887498
20
30.933809726205574
42
0.18527152721274798
10
98.128104671092089
20
33.751949406684119
42
-0.18449933247639483
10
97.024408991328045
20
35.1538872130537
42
1.0222698761278837
10
90.958988029016879
20
33.116534934140333
42
-0.18449933247638392
10
90.925417278348306
20
31.332593575474856
42
0.17236629139643916
10
90.783734064108728
20
27.987732542006292
42
-0.054522632030119644
10
94.687210933992262
20
7.7027027079682329
42
-0.43819260577398766
10
92.195442162179276
20
4.9999999999999902
10
73.969255521001557
20
4.9999999999999822
42
-0.38491756451581616
10
71.482008072985252
20
7.247809333367865
42
0.15089127484610701
10
54.948413716567885
20
46.291252395156512
42
-0.40177553953687289
10
55.231512082348161
20
50.710144426566394
42
1.0435881895603796
10
50.710144426566366
20
55.231512082348182
42
-0.40177553953687029
10
46.291252395156512
20
54.94841371656787
42
0.13722149134274225
10
11.0646404730882
20
70.991421661215384
42
-0.80031435904581216
10
10.902998106966455
20
73.425294499569588
42
0.15370965249459498
10
30.081020963159176
20
86.329455343385206
42
0.19822878694186641
10
31.142930137663814
20
89.993350354319972
42
-0.18506689831829315
10
31.597254630645416
20
91.724096133041769
42
1.0244580099938105
10
26.311386379000513
20
95.329049700523058
42
-0.18506689831829704
10
24.865961588835511
20
94.274232715703988
42
0.15955396737705418
10
22.264493292245177
20
92.566593723275361
42
-0.48139810649106524
10
-22.264493292245149
20
92.566593723275361
42
0.15955396737705321
10
-24.865961588835507
20
94.274232715703988
42
-0.18506689831829234
10
-26.311386379000517
20
95.329049700523072
42
1.0244580099938094
10
-31.597254630645413
20
91.724096133041769
42
-0.18506689831828854
10
-31.142930137663818
20
89.993350354319972
42
0.1982287869418643
10
-30.08102096315676
20
86.329455343387195
42
0.15370965249459506
10
-10.902998106966491
20
73.425294499569617
42
-0.80031435904581683
10
-11.064640473088179
20
70.991421661215398
42
0.13722149134274225
10
-46.291252395156484
20
54.948413716567892
42
-0.40177553953687284
10
-50.710144426566366
20
55.231512082348175
42
1.0435881895603796
10
-55.231512082348154
20
50.710144426566373
42
-0.40177553953687029
10
-54.948413716567842
20
46.291252395156519
42
0.15089127484610687
10
-71.482008072985252
20
7.247809333367905
42
-0.38491756451581999
10
-73.969255521001557
20
4.9999999999999902
10
-92.195442162179333
20
4.9999999999999911
42
-0.43819260577398927
10
-94.687210933992318
20
7.7027027079680899
42
-0.054522632030119644
10
-90.783734064108771
20
27.987732542006157
42
0.1723662913964458
10
-90.925417278348306
20
31.332593575474856
42
-0.18449933247638245
10
-90.958988029016894
20
33.116534934140319
42
1.0222698761278823
10
-97.024408991328045
20
35.153887213053729
42
-0.18449933247639749
10
-98.128104671092089
20
33.751949406684119
42
0.18527152721274892
10
-100.33991683887498
20
30.933809726205574
42
0.15064684238892836
10
-100.33991683887498
20
-30.933809726205574
42
0.18527152721274798
10
-98.128104671092089
20
-33.751949406684119
42
-0.18449933247639483
10
-97.024408991328045
20
-35.1538872130537
42
1.0222698761278837
10
-90.958988029016879
20
-33.116534934140333
42
-0.18449933247638392
10
-90.925417278348306
20
-31.332593575474856
42
0.17236629139644424
10
-90.783734064108771
20
-27.987732542006221
42
-0.054522632030119533
10
-94.687210933992318
20
-7.7027027079682009
42
-0.43819260577398805
10
-92.195442162179347
20
-5.0000000000000089
10
-73.969255521001571
20
-5.0000000000000009
42
-0.38491756451581999
10
-71.482008072985252
20
-7.247809333367897
42
0.15089127484610676
10
-54.948413716567892
20
-46.291252395156484
42
-0.40177553953687284
10
-55.231512082348175
20
-50.710144426566366
42
1.0435881895603796
10
-50.710144426566373
20
-55.231512082348154
42
-0.40177553953687029
10
-46.291252395156519
20
-54.948413716567842
42
0.13722149134274247
10
-11.064640473088165
20
-70.991421661215398
42
-0.80031435904580217
10
-10.902998106966455
20
-73.425294499569588
42
0.15370965249459498
10
-30.081020963159176
20
-86.329455343385206
42
0.19822878694186641
10
-31.142930137663821
20
-89.993350354319986
42
-0.18506689831829395
10
-31.597254630645413
20
-91.724096133041755
42
1.0244580099938094
10
-26.311386379000524
20
-95.329049700523072
42
-0.18506689831828624
10
-24.865961588835507
20
-94.274232715703988
42
0.15955396737705399
10
-22.264493292245188
20
-92.566593723275346
42
-0.48139810649106546
10
22.264493292245167
20
-92.566593723275361
42
0.15955396737705269
10
24.865961588835507
20
-94.274232715703988
42
-0.18506689831828763
10
26.311386379000524
20
-95.329049700523072
42
1.0244580099938105
10
31.597254630645409
20
-91.724096133041755
42
-0.18506689831829154
10
31.142930137663818
20
-89.993350354319972
42
0.1982287869418643
10
30.08102096315676
20
-86.329455343387195
42
0.15370965249459506
10
10.902998106966491
20
-73.425294499569617
42
-0.80031435904581683
10
11.064640473088179
20
-70.991421661215398
42
0.13722149134274225
10
46.291252395156484
20
-54.948413716567892
42
-0.40177553953687395
10
50.710144426566373
20
-55.231512082348161
42
1.0435881895603796
10
55.231512082348161
20
-50.710144426566366
42
-0.40177553953687029
10
54.94841371656787
20
-46.291252395156519
42
0.15089127484610673
10
71.482008072985238
20
-7.2478093333679174
42
-0.38491756451582237
10
73.969255521001557
20
-5.0000000000000133
10
92.195442162179262
20
-5.0000000000000213
42
-0.43819260577398012
10
94.687210933992247
20
-7.7027027079681121
42
-0.054522632030119762
0
ENDSEC
0
SECTION
2
OBJECTS
0
DICTIONARY
5
C
100
AcDbDictionary
3
ACAD_GROUP
350
D
3
ACAD_MLINESTYLE
350
17
0
DICTIONARY
5
D
100
AcDbDictionary
0
DICTIONARY
5
1A
330
C
100
AcDbDictionary
0
DICTIONARY
5
17
100
AcDbDictionary
0
ENDSEC
0
EOF
