0
SECTION
2
HEADER
9
$INSUNITS
70
4
9
$ACADVER
1
AC1014
9
$HANDSEED
5
FFFF
0
ENDSEC
0
SECTION
2
TABLES
0
TABLE
2
VPORT
5
8
100
AcDbSymbolTable
0
ENDTAB
0
TABLE
2
LTYPE
5
5
100
AcDbSymbolTable
0
LTYPE
5
14
100
AcDbSymbolTableRecord
100
AcDbLinetypeTableRecord
2
BYBLOCK
70
0
0
LTYPE
5
15
100
AcDbSymbolTableRecord
100
AcDbLinetypeTableRecord
2
BYLAYER
70
0
0
LTYPE
5
16
100
AcDbSymbolTableRecord
100
AcDbLinetypeTableRecord
2
DASHED
70
0
3
Dashed __ __ __ __ __ __ __ __ __ __ __ __ __ _
72
65
73
2
40
0.75
49
0.5
74
0
49
-0.25
74
0
0
ENDTAB
0
TABLE
2
LAYER
5
2
100
AcDbSymbolTable
70
2
0
LAYER
5
50
100
AcDbSymbolTableRecord
100
AcDbLayerTableRecord
2
0
70
0
62
7
6
CONTINUOUS
0
ENDTAB
0
TABLE
2
STYLE
5
3
100
AcDbSymbolTable
70
1
0
STYLE
5
11
100
AcDbSymbolTableRecord
100
AcDbTextStyleTableRecord
2
STANDARD
70
0
0
ENDTAB
0
TABLE
2
VIEW
5
6
100
AcDbSymbolTable
70
0
0
ENDTAB
0
TABLE
2
UCS
5
7
100
AcDbSymbolTable
70
0
0
ENDTAB
0
TABLE
2
APPID
5
9
100
AcDbSymbolTable
70
2
0
APPID
5
12
100
AcDbSymbolTableRecord
100
AcDbRegAppTableRecord
2
ACAD
70
0
0
ENDTAB
0
TABLE
2
DIMSTYLE
5
A
100
AcDbSymbolTable
70
1
0
ENDTAB
0
TABLE
2
BLOCK_RECORD
5
1
100
AcDbSymbolTable
70
1
0
BLOCK_RECORD
5
1F
100
AcDbSymbolTableRecord
100
AcDbBlockTableRecord
2
*MODEL_SPACE
0
BLOCK_RECORD
5
1B
100
AcDbSymbolTableRecord
100
AcDbBlockTableRecord
2
*PAPER_SPACE
0
ENDTAB
0
ENDSEC
0
SECTION
2
BLOCKS
0
BLOCK
5
20
100
AcDbEntity
100
AcDbBlockBegin
2
*MODEL_SPACE
0
ENDBLK
5
21
100
AcDbEntity
100
AcDbBlockEnd
0
BLOCK
5
1C
100
AcDbEntity
100
AcDbBlockBegin
2
*PAPER_SPACE
0
ENDBLK
5
1D
100
AcDbEntity
100
AcDbBlockEnd
0
ENDSEC
0
SECTION
2
ENTITIES
0
LWPOLYLINE
5
100
100
AcDbEntity
8
0
100
AcDbPolyline
90
96
70
1
43
0.0
10
-22.264493292245152
20
92.566593723275361
42
0.4813981064910654
10
22.26449329224517
20
92.566593723275346
42
-0.15955396737705307
10
24.865961588835507
20
94.274232715703988
42
0.18506689831829443
10
26.311386379000488
20
95.329049700523072
42
-1.0244580099938105
10
31.597254630645416
20
91.724096133041769
42
0.18506689831829246
10
31.142930137663768
20
89.993350354319972
42
-0.19822878694186441
10
30.081020963159169
20
86.329455343385249
42
-0.15145987746185022
10
11.227145938832413
20
73.52260519672123
42
0.79495672116703819
10
11.394003909419528
20
71.092732926172829
42
-0.1383464210685196
10
46.867199672106906
20
54.657713041206428
42
0.3919561569705805
10
50.262299947021411
20
54.787783346615299
10
50.911688245431435
20
55.437171645025323
42
-0.99999999999999989
10
55.437171645025344
20
50.911688245431421
10
54.787783346615306
20
50.262299947021383
42
0.39195615697057434
10
54.657713041206435
20
46.867199672106857
42
-0.15317417641042036
10
71.63422245019396
20
7.2483221476510131
42
0.38497674631993239
10
74.121521840825693
20
5.0000000000000044
10
92.195442162179347
20
5.0000000000000089
42
0.43819260577398517
10
94.687210933992318
20
7.7027027079681858
42
0.054522632030119526
10
90.783734064108245
20
27.987732542006047
42
-0.1723662913964428
10
90.925417278348306
20
31.332593575474853
42
0.18449933247638187
10
90.958988029018556
20
33.11653493414093
42
-1.022269876127885
10
97.024408991328045
20
35.1538872130537
42
0.18449933247639752
10
98.128104671092089
20
33.751949406684119
42
-0.18527152721274834
10
100.33991683887496
20
30.933809726205602
42
-0.15064684238892836
10
100.33991683887494
20
-30.93380972620556
42
-0.18527152721274834
10
98.128104671092089
20
-33.751949406684119
42
0.18449933247639752
10
97.024408991329722
20
-35.15388721305424
42
-1.022269876127885
10
90.958988029016894
20
-33.116534934140319
42
0.18449933247638187
10
90.925417278348846
20
-31.33259357547464
42
-0.1723662913964428
10
90.783734064108785
20
-27.987732542006217
42
0.054522632030119665
10
94.687210933992318
20
-7.7027027079681796
42
0.43819260577398661
10
92.195442162179347
20
-4.9999999999999876
10
74.121521840825693
20
-4.9999999999999902
42
0.3849767463199365
10
71.634222450193988
20
-7.2483221476510229
42
-0.15317417641042047
10
54.657713041206428
20
-46.867199672106906
42
0.3919561569705805
10
54.787783346615299
20
-50.262299947021411
10
55.437171645025323
20
-50.911688245431435
42
-0.99999999999999989
10
50.911688245431421
20
-55.437171645025344
10
50.262299947021383
20
-54.787783346615306
42
0.39195615697057434
10
46.867199672106864
20
-54.657713041206435
42
-0.13834642106854461
10
11.394003909412508
20
-71.092732926173923
42
0.79495672116714045
10
11.22714593882548
20
-73.522605196722424
42
-0.15145987746189213
10
30.08102096315675
20
-86.329455343387195
42
-0.19822878694186441
10
31.142930137663818
20
-89.993350354319972
42
0.18506689831829246
10
31.597254630645391
20
-91.724096133041769
42
-1.0244580099938105
10
26.311386379000517
20
-95.329049700523072
42
0.18506689831829443
10
24.865961588835503
20
-94.274232715704017
42
-0.15955396737705307
10
22.264493292245152
20
-92.566593723275361
42
0.4813981064910654
10
-22.26449329224517
20
-92.566593723275346
42
-0.15955396737705307
10
-24.865961588835507
20
-94.274232715703988
42
0.18506689831829443
10
-26.311386379000488
20
-95.329049700523072
42
-1.0244580099938105
10
-31.597254630645416
20
-91.724096133041769
42
0.18506689831829246
10
-31.142930137663768
20
-89.993350354319972
42
-0.19822878694186441
10
-30.08102096315919
20
-86.329455343385234
42
-0.15145987746185022
10
-11.227145938832432
20
-73.522605196721244
42
0.79495672116703409
10
-11.394003909419531
20
-71.092732926172829
42
-0.13834642106851949
10
-46.867199672106892
20
-54.657713041206449
42
0.3919561569705805
10
-50.262299947021404
20
-54.787783346615328
10
-50.911688245431428
20
-55.437171645025352
42
-0.99999999999999989
10
-55.43717164502533
20
-50.911688245431449
10
-54.787783346615299
20
-50.262299947021411
42
0.39195615697057434
10
-54.657713041206428
20
-46.867199672106878
42
-0.15317417641042061
10
-71.63422245019396
20
-7.2483221476509643
42
0.3849767463199274
10
-74.121521840825707
20
-4.9999999999999876
10
-92.195442162179276
20
-4.9999999999999902
42
0.43819260577397828
10
-94.687210933992262
20
-7.7027027079681627
42
0.054522632030119922
10
-90.783734064108216
20
-27.987732542006057
42
-0.17236629139644258
10
-90.925417278348306
20
-31.332593575474853
42
0.18449933247638187
10
-90.958988029018556
20
-33.11653493414093
42
-1.022269876127885
10
-97.024408991328045
20
-35.1538872130537
42
0.18449933247639752
10
-98.128104671092089
20
-33.751949406684119
42
-0.18527152721274834
10
-100.33991683887496
20
-30.933809726205602
42
-0.15064684238892836
10
-100.33991683887494
20
30.93380972620556
42
-0.18527152721274834
10
-98.128104671092089
20
33.751949406684119
42
0.18449933247639752
10
-97.024408991329722
20
35.15388721305424
42
-1.022269876127885
10
-90.958988029016894
20
33.116534934140319
42
0.18449933247638187
10
-90.92541727834876
20
31.332593575474675
42
-0.17236629139644258
10
-90.783734064108685
20
27.987732542006192
42
0.05452263203011979
10
-94.687210933992233
20
7.702702707968184
42
0.43819260577398106
10
-92.195442162179262
20
5.0000000000000133
10
-74.121521840825693
20
5.0000000000000133
42
0.38497674631993112
10
-71.634222450193988
20
7.2483221476510007
42
-0.15317417641042047
10
-54.657713041206435
20
46.867199672106892
42
0.3919561569705805
10
-54.787783346615306
20
50.262299947021404
10
-55.43717164502533
20
50.911688245431428
42
-0.99999999999999989
10
-50.911688245431428
20
55.43717164502533
10
-50.26229994702139
20
54.787783346615299
42
0.39195615697057434
10
-46.867199672106892
20
54.657713041206421
42
-0.13834642106854472
10
-11.394003909412508
20
71.092732926173923
42
0.79495672116714045
10
-11.22714593882548
20
73.522605196722424
42
-0.15145987746189213
10
-30.08102096315675
20
86.329455343387195
42
-0.19822878694186441
10
-31.142930137663818
20
89.993350354319972
42
0.18506689831829246
10
-31.597254630645391
20
91.724096133041769
42
-1.0244580099938105
10
-26.311386379000517
20
95.329049700523072
42
0.18506689831829443
10
-24.865961588835503
20
94.274232715704017
42
-0.15955396737705307
0
CIRCLE
5
101
100
AcDbEntity
8
0
100
AcDbCircle
10
-93.96925982068592
20
34.202013510756679
30
0
40
1.5999999999999994
210
0
220
0
230
1
0
CIRCLE
5
102
100
AcDbEntity
8
0
100
AcDbCircle
10
28.997879255285632
20
-93.590442204372962
30
0
40
1.6000000000000025
210
0
220
0
230
1
0
CIRCLE
5
103
100
AcDbEntity
8
0
100
AcDbCircle
10
-28.997879255285632
20
-93.590442204372962
30
0
40
1.6000000000000025
210
0
220
0
230
1
0
CIRCLE
5
104
100
AcDbEntity
8
0
100
AcDbCircle
10
-28.997879255285632
20
93.590442204372962
30
0
40
1.6000000000000025
210
0
220
0
230
1
0
CIRCLE
5
105
100
AcDbEntity
8
0
100
AcDbCircle
10
93.96925982068592
20
-34.202013510756679
30
0
40
1.5999999999999994
210
0
220
0
230
1
0
CIRCLE
5
106
100
AcDbEntity
8
0
100
AcDbCircle
10
93.96925982068592
20
34.202013510756679
30
0
40
1.5999999999999994
210
0
220
0
230
1
0
CIRCLE
5
107
100
AcDbEntity
8
0
100
AcDbCircle
10
28.997879255285632
20
93.590442204372962
30
0
40
1.6000000000000025
210
0
220
0
230
1
0
CIRCLE
5
108
100
AcDbEntity
8
0
100
AcDbCircle
10
-93.96925982068592
20
-34.202013510756679
30
0
40
1.5999999999999994
210
0
220
0
230
1
0
CIRCLE
5
109
100
AcDbEntity
8
0
100
AcDbCircle
10
0
20
0
30
0
40
60.000000000000007
210
0
220
0
230
1
0
CIRCLE
5
110
100
AcDbEntity
8
0
100
AcDbCircle
10
-53.174429945228383
20
53.174429945228383
30
0
40
1.6000000000000014
210
0
220
0
230
1
0
CIRCLE
5
111
100
AcDbEntity
8
0
100
AcDbCircle
10
-53.174429945228383
20
-53.174429945228397
30
0
40
1.6000000000000014
210
0
220
0
230
1
0
CIRCLE
5
112
100
AcDbEntity
8
0
100
AcDbCircle
10
53.174429945228368
20
-53.17442994522839
30
0
40
1.6000000000000014
210
0
220
0
230
1
0
CIRCLE
5
113
100
AcDbEntity
8
0
100
AcDbCircle
10
53.17442994522839
20
53.174429945228368
30
0
40
1.6000000000000014
210
0
220
0
230
1
0
ENDSEC
0
SECTION
2
OBJECTS
0
DICTIONARY
5
C
100
AcDbDictionary
3
ACAD_GROUP
350
D
3
ACAD_MLINESTYLE
350
17
0
DICTIONARY
5
D
100
AcDbDictionary
0
DICTIONARY
5
1A
330
C
100
AcDbDictionary
0
DICTIONARY
5
17
100
AcDbDictionary
0
ENDSEC
0
EOF
